<?xml version="1.0" encoding="UTF-8" standalone="no"?>
<!-- Created with Inkscape (http://www.inkscape.org/) -->

<svg
   xmlns:dc="http://purl.org/dc/elements/1.1/"
   xmlns:cc="http://creativecommons.org/ns#"
   xmlns:rdf="http://www.w3.org/1999/02/22-rdf-syntax-ns#"
   xmlns:svg="http://www.w3.org/2000/svg"
   xmlns="http://www.w3.org/2000/svg"
   xmlns:sodipodi="http://sodipodi.sourceforge.net/DTD/sodipodi-0.dtd"
   xmlns:inkscape="http://www.inkscape.org/namespaces/inkscape"
   id="svg2"
   version="1.1"
   inkscape:version="0.91 r13725"
   xml:space="preserve"
   width="312.5"
   height="312.5"
   viewBox="0 0 312.5 312.5"
   sodipodi:docname="kodeklubben_tananger_kvadrat_vektor.svg"
   inkscape:export-filename="/home/abjectio/koding/kodeklubbentananger/kodeklubben_tananger_kvadrat_vektor.png"
   inkscape:export-xdpi="150.048"
   inkscape:export-ydpi="150.048"><metadata
     id="metadata8"><rdf:RDF><cc:Work
         rdf:about=""><dc:format>image/svg+xml</dc:format><dc:type
           rdf:resource="http://purl.org/dc/dcmitype/StillImage" /><dc:title></dc:title></cc:Work></rdf:RDF></metadata><defs
     id="defs6"><clipPath
       clipPathUnits="userSpaceOnUse"
       id="clipPath16"><path
         d="M 0,0 250,0 250,250 0,250 0,0 Z"
         id="path18"
         inkscape:connector-curvature="0" /></clipPath><clipPath
       clipPathUnits="userSpaceOnUse"
       id="clipPath28"><path
         d="M 0,250 250,250 250,0 0,0 0,250 Z"
         id="path30"
         inkscape:connector-curvature="0" /></clipPath></defs><sodipodi:namedview
     pagecolor="#ffffff"
     bordercolor="#666666"
     borderopacity="1"
     objecttolerance="10"
     gridtolerance="10"
     guidetolerance="10"
     inkscape:pageopacity="0"
     inkscape:pageshadow="2"
     inkscape:window-width="989"
     inkscape:window-height="640"
     id="namedview4"
     showgrid="false"
     inkscape:zoom="0.7552"
     inkscape:cx="-394.67959"
     inkscape:cy="125.82205"
     inkscape:window-x="228"
     inkscape:window-y="282"
     inkscape:window-maximized="0"
     inkscape:current-layer="g10" /><g
     id="g10"
     inkscape:groupmode="layer"
     inkscape:label="kodeklubben_klepp_kvadrat_vektor"
     transform="matrix(1.25,0,0,-1.25,0,312.5)"><g
       id="g12"><g
         id="g14"
         clip-path="url(#clipPath16)"><g
           id="g20"
           transform="translate(18.75,250)"><path
             d="m 0,0 c 0,0 -18.75,0 -18.75,-18.75 l 0,-212.5 c 0,0 0,-18.75 18.75,-18.75 l 212.5,0 c 0,0 18.75,0 18.75,18.75 l 0,212.5 c 0,0 0,18.75 -18.75,18.75 L 0,0 Z"
             style="fill:#231f20;fill-opacity:1;fill-rule:nonzero;stroke:none"
             id="path22"
             inkscape:connector-curvature="0" /></g></g></g><g
       id="g24"><g
         id="g26"
         clip-path="url(#clipPath28)"><g
           id="g32"
           transform="translate(211.0898,75.2139)"><path
             d="m 0,0 c 1.505,1.386 2.259,3.171 2.259,5.358 0,2.238 -0.763,4.047 -2.295,5.433 -1.532,1.386 -4.074,2.078 -7.624,2.078 l -82.112,0 c -3.599,0 -6.161,-0.692 -7.692,-2.078 -1.533,-1.386 -2.299,-3.195 -2.299,-5.433 0,-2.233 0.766,-4.034 2.299,-5.395 1.531,-1.36 4.093,-2.041 7.692,-2.041 l 82.112,0 c 3.598,0 6.149,0.689 7.66,2.078"
             style="fill:#66c430;fill-opacity:1;fill-rule:nonzero;stroke:none"
             id="path34"
             inkscape:connector-curvature="0" /></g><g
           id="g36"
           transform="translate(61.0161,133.0063)"><path
             d="m 0,0 26.325,-27.055 -4.301,0 c -1.46,0 -2.505,-0.281 -3.137,-0.84 -0.632,-0.559 -0.948,-1.3 -0.948,-2.222 0,-0.876 0.316,-1.604 0.948,-2.187 0.632,-0.586 1.677,-0.876 3.137,-0.876 l 19.834,0 c 1.506,0 2.576,0.29 3.209,0.876 0.632,0.583 0.949,1.311 0.949,2.187 0,0.922 -0.317,1.663 -0.949,2.222 -0.633,0.559 -1.703,0.84 -3.209,0.84 l -7.073,0 -30.263,30.847 23.919,19.981 7.073,0 c 1.506,0 2.576,0.291 3.21,0.874 0.63,0.583 0.946,1.312 0.946,2.188 0,0.924 -0.316,1.679 -0.946,2.262 -0.634,0.583 -1.704,0.874 -3.21,0.874 l -19.618,0 c -1.457,0 -2.502,-0.291 -3.134,-0.874 -0.632,-0.583 -0.948,-1.338 -0.948,-2.262 0,-0.876 0.316,-1.605 0.948,-2.188 0.632,-0.583 1.677,-0.874 3.134,-0.874 l 3.137,0 L -7,1.895 l 0,56.444 -14.367,0 c -1.458,0 -2.505,-0.292 -3.136,-0.876 -0.631,-0.583 -0.947,-1.312 -0.947,-2.187 0,-0.923 0.316,-1.676 0.947,-2.261 0.631,-0.583 1.678,-0.874 3.136,-0.874 l 8.241,0 0,-79.196 -8.241,0 c -1.458,0 -2.505,-0.281 -3.136,-0.84 -0.631,-0.559 -0.947,-1.3 -0.947,-2.222 0,-0.876 0.316,-1.604 0.947,-2.187 0.631,-0.586 1.678,-0.876 3.136,-0.876 L -7,-33.18 -7,-5.907 0,0 Z"
             style="fill:#ffffff;fill-opacity:1;fill-rule:nonzero;stroke:none"
             id="path38"
             inkscape:connector-curvature="0" /></g></g></g><text
       transform="matrix(1,0,0,-1,27.8135,32.2939)"
       style="font-variant:normal;font-weight:normal;font-stretch:normal;font-size:27.76919937px;font-family:'Courier New';-inkscape-font-specification:CourierNewPSMT;writing-mode:lr-tb;fill:#ffffff;fill-opacity:1;fill-rule:nonzero;stroke:none"
       id="text40"><tspan
         x="0"
         y="0"
         id="tspan42">[</tspan></text>
<text
       transform="matrix(1,0,0,-1,45.558019,32.2939)"
       style="font-variant:normal;font-weight:bold;font-stretch:normal;font-size:27.76919937px;font-family:'Courier New';-inkscape-font-specification:CourierNewPS-BoldMT;writing-mode:lr-tb;fill:#9adddb;fill-opacity:1;fill-rule:nonzero;stroke:none"
       id="text44"><tspan
         sodipodi:role="line"
         id="tspan46"
         style="font-style:normal;font-variant:normal;font-weight:bold;font-stretch:normal;font-family:Courier;-inkscape-font-specification:'Courier Bold';fill:#ff7f2a"
         x="0"
         y="0">tananger</tspan></text>
<text
       transform="scale(1,-1)"
       style="font-variant:normal;font-weight:normal;font-stretch:normal;font-size:27.76919937px;font-family:'Courier New';-inkscape-font-specification:CourierNewPSMT;writing-mode:lr-tb;fill:#ffffff;fill-opacity:1;fill-rule:nonzero;stroke:none"
       id="text48"
       x="179.08078"
       y="-32.2939"><tspan
         x="179.08078"
         y="-32.2939"
         id="tspan50">]</tspan></text>
</g></svg>