<?xml version="1.0" encoding="UTF-8" standalone="no"?>
<!-- Created with Inkscape (http://www.inkscape.org/) -->

<svg
   xmlns:dc="http://purl.org/dc/elements/1.1/"
   xmlns:cc="http://creativecommons.org/ns#"
   xmlns:rdf="http://www.w3.org/1999/02/22-rdf-syntax-ns#"
   xmlns:svg="http://www.w3.org/2000/svg"
   xmlns="http://www.w3.org/2000/svg"
   xmlns:sodipodi="http://sodipodi.sourceforge.net/DTD/sodipodi-0.dtd"
   xmlns:inkscape="http://www.inkscape.org/namespaces/inkscape"
   id="svg2"
   version="1.1"
   inkscape:version="0.91 r13725"
   xml:space="preserve"
   width="1027.5"
   height="125"
   viewBox="0 0 1027.5 125"
   sodipodi:docname="kodeklubben_tananger_lang_vektor.svg"
   inkscape:export-filename="/home/abjectio/koding/kodeklubbentananger/kodeklubben_tananger_lang_vektor.png"
   inkscape:export-xdpi="149.76015"
   inkscape:export-ydpi="149.76015"><metadata
     id="metadata8"><rdf:RDF><cc:Work
         rdf:about=""><dc:format>image/svg+xml</dc:format><dc:type
           rdf:resource="http://purl.org/dc/dcmitype/StillImage" /><dc:title></dc:title></cc:Work></rdf:RDF></metadata><defs
     id="defs6"><clipPath
       clipPathUnits="userSpaceOnUse"
       id="clipPath16"><path
         d="M 0,100 822,100 822,0 0,0 0,100 Z"
         id="path18"
         inkscape:connector-curvature="0" /></clipPath></defs><sodipodi:namedview
     pagecolor="#ffffff"
     bordercolor="#666666"
     borderopacity="1"
     objecttolerance="10"
     gridtolerance="10"
     guidetolerance="10"
     inkscape:pageopacity="0"
     inkscape:pageshadow="2"
     inkscape:window-width="987"
     inkscape:window-height="640"
     id="namedview4"
     showgrid="false"
     inkscape:zoom="1.2414799"
     inkscape:cx="594.23186"
     inkscape:cy="-53.548851"
     inkscape:window-x="336"
     inkscape:window-y="149"
     inkscape:window-maximized="0"
     inkscape:current-layer="g10" /><g
     id="g10"
     inkscape:groupmode="layer"
     inkscape:label="kodeklubben_klepp_lang_vektor"
     transform="matrix(1.25,0,0,-1.25,0,125)"><g
       id="g12"><g
         id="g14"
         clip-path="url(#clipPath16)"><g
           id="g20"
           transform="translate(822,11.1621)"><path
             d="m 0,0 c 0,-6.164 -5.37,-11.162 -11.995,-11.162 l -798.012,0 C -816.632,-11.162 -822,-6.164 -822,0 l 0,77.675 c 0,6.165 5.368,11.163 11.993,11.163 l 798.012,0 C -5.37,88.838 0,83.84 0,77.675 L 0,0 Z"
             style="fill:#231f20;fill-opacity:1;fill-rule:nonzero;stroke:none"
             id="path22"
             inkscape:connector-curvature="0" /></g><g
           id="g24"
           transform="translate(205.3867,43.9121)"><path
             d="m 0,0 0,-7.66 -5.391,0 c -1.109,0 -1.898,0.215 -2.37,0.64 -0.471,0.428 -0.708,0.985 -0.708,1.674 0,0.674 0.24,1.225 0.719,1.651 0.479,0.427 1.266,0.64 2.359,0.64 l 0.786,0 0,19.922 -0.786,0 c -1.109,0 -1.898,0.214 -2.37,0.64 -0.471,0.428 -0.708,0.985 -0.708,1.674 0,0.673 0.237,1.224 0.708,1.65 0.472,0.428 1.261,0.641 2.37,0.641 L 0,21.472 0,5.951 3.594,8.849 c -0.375,0.643 -0.563,1.168 -0.563,1.572 0,0.688 0.233,1.246 0.698,1.674 0.462,0.426 1.25,0.639 2.357,0.639 l 5.256,0 c 1.108,0 1.898,-0.213 2.37,-0.639 0.472,-0.428 0.708,-0.986 0.708,-1.674 0,-0.674 -0.236,-1.224 -0.708,-1.65 C 13.24,8.343 12.45,8.13 11.342,8.13 l -1.279,0 -5.594,-4.536 7.525,-6.649 1.348,0 c 1.107,0 1.897,-0.213 2.369,-0.64 0.472,-0.426 0.707,-0.985 0.707,-1.674 0,-0.674 -0.235,-1.223 -0.707,-1.651 -0.472,-0.425 -1.262,-0.64 -2.369,-0.64 l -5.301,0 c -1.109,0 -1.898,0.215 -2.37,0.64 -0.472,0.428 -0.708,0.985 -0.708,1.674 0,0.584 0.255,1.16 0.764,1.729 L 0.854,0.695 0,0 Z"
             style="fill:#66c430;fill-opacity:1;fill-rule:nonzero;stroke:none"
             id="path26"
             inkscape:connector-curvature="0" /></g><g
           id="g28"
           transform="translate(240.8711,65.3838)"><path
             d="m 0,0 0,-24.526 5.525,0 c 1.109,0 1.899,-0.213 2.371,-0.641 0.471,-0.426 0.708,-0.984 0.708,-1.674 0,-0.674 -0.237,-1.222 -0.708,-1.65 -0.472,-0.426 -1.262,-0.641 -2.371,-0.641 l -15.654,0 c -1.109,0 -1.898,0.215 -2.37,0.641 -0.472,0.428 -0.708,0.984 -0.708,1.674 0,0.673 0.236,1.224 0.708,1.65 0.472,0.428 1.261,0.641 2.37,0.641 l 5.525,0 0,19.922 -3.707,0 c -1.092,0 -1.878,0.213 -2.357,0.639 -0.48,0.428 -0.719,0.986 -0.719,1.674 0,0.674 0.236,1.225 0.707,1.65 C -10.208,-0.213 -9.418,0 -8.311,0 L 0,0 Z"
             style="fill:#66c430;fill-opacity:1;fill-rule:nonzero;stroke:none"
             id="path30"
             inkscape:connector-curvature="0" /></g><g
           id="g32"
           transform="translate(275.75,56.6465)"><path
             d="m 0,0 0,-15.789 c 0.974,0 1.692,-0.217 2.156,-0.652 0.464,-0.434 0.697,-0.989 0.697,-1.663 0,-0.673 -0.236,-1.222 -0.708,-1.65 -0.471,-0.426 -1.261,-0.641 -2.37,-0.641 l -4.379,0 0,1.057 c -1.318,-0.599 -2.576,-1.049 -3.774,-1.348 -1.198,-0.3 -2.336,-0.449 -3.414,-0.449 -1.513,0 -2.822,0.319 -3.931,0.955 -1.108,0.635 -1.984,1.516 -2.628,2.639 -0.463,0.809 -0.696,1.818 -0.696,3.031 l 0,9.906 -0.786,0 c -1.108,0 -1.897,0.213 -2.37,0.641 -0.471,0.425 -0.707,0.984 -0.707,1.672 0,0.674 0.236,1.224 0.707,1.651 0.473,0.426 1.262,0.64 2.37,0.64 l 5.391,0 0,-13.701 c 0,-0.973 0.235,-1.688 0.708,-2.145 0.47,-0.457 1.193,-0.685 2.167,-0.685 0.928,0 1.927,0.183 2.999,0.551 1.07,0.367 2.391,1.029 3.964,1.988 l 0,9.388 -1.663,0 c -1.108,0 -1.897,0.213 -2.37,0.641 -0.47,0.425 -0.707,0.984 -0.707,1.672 0,0.674 0.237,1.224 0.707,1.651 0.473,0.426 1.262,0.64 2.37,0.64 L 0,0 Z"
             style="fill:#66c430;fill-opacity:1;fill-rule:nonzero;stroke:none"
             id="path34"
             inkscape:connector-curvature="0" /></g><g
           id="g36"
           transform="translate(305.3291,45.8438)"><path
             d="m 0,0 c 0,1.9 -0.666,3.511 -1.999,4.828 -1.333,1.318 -2.965,1.976 -4.897,1.976 -1.917,0 -3.541,-0.658 -4.874,-1.976 -1.333,-1.317 -1.999,-2.904 -1.999,-4.762 0,-1.691 0.599,-3.08 1.797,-4.166 1.199,-1.086 2.89,-1.629 5.076,-1.629 2.187,0 3.882,0.543 5.088,1.629 C -0.603,-3.014 0,-1.648 0,0 m -13.769,19.54 0,-10.332 c 1.123,0.733 2.265,1.284 3.426,1.65 1.16,0.368 2.332,0.551 3.515,0.551 3.189,0 5.892,-1.1 8.108,-3.302 2.216,-2.201 3.324,-4.859 3.324,-7.972 0,-2.981 -1.055,-5.469 -3.167,-7.469 -2.111,-1.998 -4.896,-2.998 -8.355,-2.998 -1.228,0 -2.411,0.156 -3.549,0.471 -1.137,0.314 -2.238,0.779 -3.302,1.392 l 0,-1.123 -5.39,0 c -1.109,0 -1.899,0.215 -2.369,0.641 -0.473,0.428 -0.708,0.984 -0.708,1.674 0,0.673 0.239,1.224 0.718,1.65 0.48,0.428 1.266,0.641 2.359,0.641 l 0.786,0 0,19.922 -0.786,0 c -1.109,0 -1.899,0.213 -2.369,0.639 -0.473,0.428 -0.708,0.986 -0.708,1.674 0,0.674 0.235,1.225 0.708,1.65 0.47,0.428 1.26,0.641 2.369,0.641 l 5.39,0 z"
             style="fill:#66c430;fill-opacity:1;fill-rule:nonzero;stroke:none"
             id="path38"
             inkscape:connector-curvature="0" /></g><g
           id="g40"
           transform="translate(334.7275,45.8438)"><path
             d="m 0,0 c 0,1.9 -0.666,3.511 -1.999,4.828 -1.333,1.318 -2.965,1.976 -4.897,1.976 -1.917,0 -3.541,-0.658 -4.874,-1.976 -1.333,-1.317 -1.999,-2.904 -1.999,-4.762 0,-1.691 0.599,-3.08 1.797,-4.166 1.199,-1.086 2.89,-1.629 5.076,-1.629 2.187,0 3.882,0.543 5.088,1.629 C -0.603,-3.014 0,-1.648 0,0 m -13.769,19.54 0,-10.332 c 1.123,0.733 2.265,1.284 3.426,1.65 1.16,0.368 2.332,0.551 3.515,0.551 3.189,0 5.892,-1.1 8.108,-3.302 2.216,-2.201 3.324,-4.859 3.324,-7.972 0,-2.981 -1.055,-5.469 -3.167,-7.469 -2.111,-1.998 -4.896,-2.998 -8.355,-2.998 -1.228,0 -2.411,0.156 -3.549,0.471 -1.137,0.314 -2.238,0.779 -3.302,1.392 l 0,-1.123 -5.39,0 c -1.109,0 -1.899,0.215 -2.369,0.641 -0.473,0.428 -0.708,0.984 -0.708,1.674 0,0.673 0.239,1.224 0.718,1.65 0.48,0.428 1.266,0.641 2.359,0.641 l 0.786,0 0,19.922 -0.786,0 c -1.109,0 -1.899,0.213 -2.369,0.639 -0.473,0.428 -0.708,0.986 -0.708,1.674 0,0.674 0.235,1.225 0.708,1.65 0.47,0.428 1.26,0.641 2.369,0.641 l 5.39,0 z"
             style="fill:#66c430;fill-opacity:1;fill-rule:nonzero;stroke:none"
             id="path42"
             inkscape:connector-curvature="0" /></g><g
           id="g44"
           transform="translate(362.6211,48.7188)"><path
             d="M 0,0 C -0.704,1.316 -1.625,2.302 -2.763,2.953 -3.9,3.605 -5.256,3.929 -6.828,3.929 -8.386,3.929 -9.733,3.605 -10.871,2.953 -12.009,2.302 -12.938,1.316 -13.656,0 L 0,0 Z m 5.099,-4.605 -18.89,0 c 0.479,-1.198 1.329,-2.165 2.549,-2.897 1.221,-0.734 2.872,-1.102 4.953,-1.102 1.707,0 3.976,0.368 6.806,1.102 1.168,0.299 1.976,0.449 2.425,0.449 0.615,0 1.131,-0.217 1.55,-0.652 0.419,-0.434 0.629,-0.981 0.629,-1.639 0,-0.599 -0.225,-1.109 -0.674,-1.527 -0.598,-0.555 -2.058,-1.082 -4.38,-1.584 -2.321,-0.502 -4.551,-0.752 -6.693,-0.752 -3.684,0 -6.63,1.041 -8.839,3.121 -2.208,2.082 -3.312,4.643 -3.312,7.682 0,3.234 1.194,5.866 3.582,7.895 2.388,2.029 5.14,3.043 8.255,3.043 1.872,0 3.589,-0.329 5.155,-0.988 C -0.221,6.887 0.943,6.176 1.707,5.412 2.785,4.304 3.676,2.933 4.38,1.302 4.859,0.164 5.099,-1.154 5.099,-2.65 l 0,-1.955 z"
             style="fill:#66c430;fill-opacity:1;fill-rule:nonzero;stroke:none"
             id="path46"
             inkscape:connector-curvature="0" /></g><g
           id="g48"
           transform="translate(380.9014,56.6465)"><path
             d="m 0,0 0,-1.55 c 0.839,0.719 1.763,1.258 2.774,1.617 1.01,0.36 2.108,0.539 3.29,0.539 2.726,0 4.882,-0.845 6.469,-2.538 1.258,-1.347 1.887,-3.113 1.887,-5.301 l 0,-8.556 c 0.974,0 1.692,-0.213 2.156,-0.641 0.464,-0.425 0.696,-0.984 0.696,-1.674 0,-0.673 -0.236,-1.222 -0.707,-1.65 -0.472,-0.426 -1.261,-0.641 -2.37,-0.641 l -4.155,0 c -1.108,0 -1.898,0.215 -2.369,0.641 -0.473,0.428 -0.708,0.984 -0.708,1.674 0,0.674 0.232,1.225 0.696,1.65 0.464,0.428 1.183,0.641 2.156,0.641 l 0,8.691 c 0,1.004 -0.269,1.738 -0.808,2.201 -0.704,0.6 -1.76,0.898 -3.167,0.898 -1.064,0 -1.995,-0.205 -2.796,-0.617 C 2.242,-5.028 1.228,-5.899 0,-7.233 l 0,-8.556 c 1.183,0 1.946,-0.113 2.291,-0.338 0.733,-0.449 1.101,-1.107 1.101,-1.977 0,-0.673 -0.237,-1.222 -0.707,-1.65 -0.473,-0.426 -1.262,-0.641 -2.371,-0.641 l -5.233,0 c -1.108,0 -1.898,0.215 -2.369,0.641 -0.473,0.428 -0.708,0.984 -0.708,1.674 0,0.838 0.359,1.49 1.078,1.953 0.359,0.225 1.131,0.338 2.314,0.338 l 0,11.185 c -0.974,0 -1.693,0.217 -2.157,0.65 -0.464,0.436 -0.696,0.989 -0.696,1.663 0,0.674 0.235,1.224 0.708,1.651 C -6.278,-0.214 -5.488,0 -4.38,0 L 0,0 Z"
             style="fill:#66c430;fill-opacity:1;fill-rule:nonzero;stroke:none"
             id="path50"
             inkscape:connector-curvature="0" /></g><g
           id="g52"
           transform="translate(87.5801,44.6523)"><path
             d="m 0,0 0,-8.4 -4.425,0 c -0.449,0 -0.771,0.089 -0.966,0.269 -0.195,0.18 -0.292,0.404 -0.292,0.674 0,0.285 0.097,0.514 0.292,0.686 0.195,0.171 0.517,0.257 0.966,0.257 l 2.538,0 0,24.393 -2.538,0 c -0.449,0 -0.771,0.09 -0.966,0.269 -0.195,0.18 -0.292,0.413 -0.292,0.697 0,0.269 0.097,0.494 0.292,0.674 0.195,0.179 0.517,0.269 0.966,0.269 l 4.425,0 0,-17.384 8.019,6.738 -0.966,0 c -0.449,0 -0.772,0.089 -0.966,0.269 -0.194,0.18 -0.292,0.404 -0.292,0.674 0,0.284 0.098,0.517 0.292,0.696 0.194,0.18 0.517,0.27 0.966,0.27 l 6.042,0 c 0.464,0 0.794,-0.09 0.988,-0.27 0.194,-0.179 0.292,-0.412 0.292,-0.696 0,-0.27 -0.098,-0.494 -0.292,-0.674 -0.194,-0.18 -0.524,-0.269 -0.988,-0.269 l -2.179,0 -7.367,-6.154 9.321,-9.502 2.179,0 c 0.464,0 0.793,-0.086 0.988,-0.257 0.194,-0.172 0.292,-0.401 0.292,-0.686 0,-0.27 -0.098,-0.494 -0.292,-0.674 C 15.842,-8.311 15.513,-8.4 15.049,-8.4 l -6.11,0 c -0.449,0 -0.771,0.089 -0.965,0.269 -0.195,0.18 -0.292,0.404 -0.292,0.674 0,0.285 0.097,0.514 0.292,0.686 0.194,0.171 0.516,0.257 0.965,0.257 l 1.326,0 L 2.156,1.82 0,0 Z"
             style="fill:#ffffff;fill-opacity:1;fill-rule:nonzero;stroke:none"
             id="path54"
             inkscape:connector-curvature="0" /></g><g
           id="g56"
           transform="translate(129.4443,45.9336)"><path
             d="m 0,0 c 0,2.365 -0.843,4.378 -2.526,6.041 -1.686,1.662 -3.726,2.493 -6.121,2.493 -2.397,0 -4.436,-0.835 -6.122,-2.503 -1.683,-1.67 -2.526,-3.681 -2.526,-6.031 0,-2.336 0.843,-4.344 2.526,-6.02 1.686,-1.677 3.725,-2.515 6.122,-2.515 2.395,0 4.435,0.834 6.121,2.504 C -0.843,-4.361 0,-2.352 0,0 m 1.909,0 c 0,-2.875 -1.029,-5.332 -3.088,-7.367 -2.059,-2.037 -4.541,-3.055 -7.446,-3.055 -2.935,0 -5.429,1.022 -7.479,3.067 -2.052,2.043 -3.078,4.494 -3.078,7.355 0,2.875 1.026,5.333 3.078,7.378 2.05,2.043 4.544,3.065 7.479,3.065 2.905,0 5.387,-1.018 7.446,-3.054 C 0.88,5.353 1.909,2.889 1.909,0"
             style="fill:#ffffff;fill-opacity:1;fill-rule:nonzero;stroke:none"
             id="path58"
             inkscape:connector-curvature="0" /></g><g
           id="g60"
           transform="translate(157.54,45.9336)"><path
             d="m 0,0 c 0,2.395 -0.809,4.416 -2.426,6.064 -1.617,1.647 -3.542,2.47 -5.772,2.47 -2.246,0 -4.178,-0.823 -5.795,-2.47 C -15.61,4.416 -16.419,2.395 -16.419,0 c 0,-2.381 0.809,-4.398 2.426,-6.053 1.617,-1.656 3.549,-2.482 5.795,-2.482 2.23,0 4.155,0.826 5.772,2.482 C -0.809,-4.398 0,-2.381 0,0 m 1.909,18.507 0,-26.302 2.516,0 c 0.464,0 0.793,-0.086 0.988,-0.258 0.194,-0.172 0.292,-0.4 0.292,-0.685 0,-0.27 -0.098,-0.494 -0.292,-0.674 -0.195,-0.18 -0.524,-0.27 -0.988,-0.27 l -4.425,0 0,3.752 c -2.187,-2.996 -4.964,-4.492 -8.333,-4.492 -1.707,0 -3.344,0.453 -4.908,1.359 -1.565,0.905 -2.8,2.198 -3.705,3.874 -0.907,1.677 -1.36,3.406 -1.36,5.189 0,1.797 0.453,3.529 1.36,5.199 0.905,1.67 2.14,2.961 3.705,3.874 1.564,0.913 3.209,1.37 4.93,1.37 3.294,0 6.065,-1.497 8.311,-4.492 l 0,10.647 -2.516,0 c -0.463,0 -0.794,0.089 -0.988,0.269 -0.194,0.18 -0.292,0.412 -0.292,0.696 0,0.27 0.098,0.495 0.292,0.674 0.194,0.18 0.525,0.27 0.988,0.27 l 4.425,0 z"
             style="fill:#ffffff;fill-opacity:1;fill-rule:nonzero;stroke:none"
             id="path62"
             inkscape:connector-curvature="0" /></g><g
           id="g64"
           transform="translate(187.9043,47.4375)"><path
             d="M 0,0 C -0.375,2.082 -1.359,3.773 -2.953,5.076 -4.549,6.379 -6.446,7.03 -8.647,7.03 -10.849,7.03 -12.743,6.387 -14.33,5.099 -15.918,3.81 -16.906,2.111 -17.295,0 L 0,0 Z m 1.909,-1.908 -19.226,0 c 0.329,-2.442 1.35,-4.406 3.065,-5.897 1.715,-1.49 3.838,-2.234 6.368,-2.234 1.407,0 2.882,0.232 4.425,0.695 1.542,0.465 2.8,1.078 3.773,1.842 0.285,0.225 0.532,0.338 0.742,0.338 0.239,0 0.449,-0.094 0.629,-0.281 0.179,-0.188 0.269,-0.409 0.269,-0.662 0,-0.256 -0.12,-0.502 -0.359,-0.743 -0.719,-0.748 -1.995,-1.447 -3.829,-2.099 -1.835,-0.651 -3.718,-0.977 -5.65,-0.977 -3.234,0 -5.933,1.059 -8.096,3.178 -2.165,2.119 -3.247,4.684 -3.247,7.693 0,2.74 1.014,5.09 3.043,7.052 2.03,1.962 4.541,2.942 7.537,2.942 3.085,0 5.622,-1.006 7.614,-3.02 1.991,-2.015 2.972,-4.624 2.942,-7.827"
             style="fill:#ffffff;fill-opacity:1;fill-rule:nonzero;stroke:none"
             id="path66"
             inkscape:connector-curvature="0" /></g></g></g><text
       transform="matrix(1,0,0,-1,401.1577,36.252)"
       style="font-variant:normal;font-weight:bold;font-stretch:normal;font-size:46px;font-family:Courier;-inkscape-font-specification:'Courier Bold';writing-mode:lr-tb;fill:#ffffff;fill-opacity:1;fill-rule:nonzero;stroke:none;font-style:normal;"
       id="text68"><tspan
         x="0"
         y="0"
         id="tspan70"
         style="-inkscape-font-specification:'Courier Bold';font-family:Courier;font-weight:bold;font-style:normal;font-stretch:normal;font-variant:normal;">[</tspan></text>
<text
       transform="matrix(1,0,0,-1,430.5517,36.252)"
       style="font-style:normal;font-variant:normal;font-weight:bold;font-stretch:normal;font-size:46px;font-family:Courier;-inkscape-font-specification:'Courier Bold';writing-mode:lr-tb;fill:#9adddb;fill-opacity:1;fill-rule:nonzero;stroke:none"
       id="text72"><tspan
         sodipodi:role="line"
         id="tspan74"
         x="0"
         y="0"
         style="fill:#ff7f2a">tananger</tspan></text>
<text
       transform="scale(1,-1)"
       style="font-style:normal;font-variant:normal;font-weight:bold;font-stretch:normal;font-size:46px;font-family:Courier;-inkscape-font-specification:'Courier Bold';writing-mode:lr-tb;fill:#ffffff;fill-opacity:1;fill-rule:nonzero;stroke:none"
       id="text76"
       x="649.52063"
       y="-36.251999"><tspan
         x="649.52063"
         y="-36.251999"
         id="tspan78"
         style="font-style:normal;font-variant:normal;font-weight:bold;font-stretch:normal;font-family:Courier;-inkscape-font-specification:'Courier Bold'">]</tspan></text>
<text
       transform="scale(1,-1)"
       style="font-style:normal;font-variant:normal;font-weight:bold;font-stretch:normal;font-size:46px;font-family:Courier;-inkscape-font-specification:'Courier Bold';writing-mode:lr-tb;fill:#66c430;fill-opacity:1;fill-rule:nonzero;stroke:none"
       id="text80"
       x="674.16071"
       y="-36.251999"><tspan
         x="674.16071"
         y="-36.251999"
         id="tspan82"
         style="font-style:normal;font-variant:normal;font-weight:bold;font-stretch:normal;font-family:Courier;-inkscape-font-specification:'Courier Bold'">_</tspan></text>
</g></svg>